<svg xmlns="http://www.w3.org/2000/svg" xmlns:xlink="http://www.w3.org/1999/xlink" width="800" zoomAndPan="magnify" viewBox="0 0 600 179.999997" height="240" preserveAspectRatio="xMidYMid meet" version="1.0"><defs><g/></defs><path fill="#ffcc80" d="M 167.003906 153.246094 L 156.058594 142.285156 L 148.761719 149.59375 L 159.707031 160.554688 C 161.722656 162.574219 164.992188 162.574219 167.003906 160.554688 C 169.019531 158.535156 169.019531 155.265625 167.003906 153.246094 Z M 177.328125 91.238281 L 166.378906 80.277344 L 159.082031 87.582031 L 170.03125 98.542969 C 172.046875 100.5625 175.3125 100.5625 177.328125 98.542969 C 179.339844 96.527344 179.34375 93.257812 177.328125 91.238281 Z M 88.339844 153.246094 L 99.289062 142.285156 L 106.585938 149.59375 L 95.636719 160.554688 C 93.621094 162.574219 90.351562 162.574219 88.339844 160.554688 C 86.328125 158.535156 86.324219 155.265625 88.339844 153.246094 Z M 77.15625 91.238281 L 88.105469 80.277344 L 95.402344 87.582031 L 84.457031 98.542969 C 82.4375 100.5625 79.171875 100.5625 77.15625 98.542969 C 75.144531 96.527344 75.140625 93.257812 77.15625 91.238281 Z M 77.15625 91.238281 " fill-opacity="1" fill-rule="nonzero"/><path fill="#4dd0e1" d="M 175.445312 34.632812 C 175.445312 27.972656 171.492188 24.296875 164.328125 24.296875 C 157.164062 24.296875 151.359375 33.140625 151.359375 39.800781 C 151.359375 43.246094 157.976562 44.96875 161.683594 44.96875 C 168.847656 44.96875 175.445312 41.292969 175.445312 34.632812 Z M 79.109375 34.632812 C 79.109375 27.972656 83.0625 24.296875 90.226562 24.296875 C 97.386719 24.296875 103.191406 33.140625 103.191406 39.800781 C 103.191406 43.246094 96.578125 44.96875 92.871094 44.96875 C 85.707031 44.96875 79.109375 41.292969 79.109375 34.632812 Z M 79.109375 34.632812 " fill-opacity="1" fill-rule="nonzero"/><path fill="#424242" d="M 165.125 31.1875 C 164.667969 31.1875 164.226562 31.273438 163.804688 31.449219 C 163.386719 31.625 163.011719 31.875 162.691406 32.195312 C 162.367188 32.519531 162.121094 32.890625 161.945312 33.3125 C 161.769531 33.738281 161.683594 34.175781 161.683594 34.632812 C 161.683594 35.089844 161.769531 35.527344 161.945312 35.949219 C 162.121094 36.375 162.367188 36.746094 162.691406 37.070312 C 163.011719 37.390625 163.386719 37.640625 163.804688 37.816406 C 164.226562 37.992188 164.667969 38.078125 165.125 38.078125 C 165.578125 38.078125 166.019531 37.992188 166.441406 37.816406 C 166.863281 37.640625 167.234375 37.390625 167.554688 37.070312 C 167.878906 36.746094 168.128906 36.375 168.300781 35.949219 C 168.476562 35.527344 168.5625 35.089844 168.5625 34.632812 C 168.5625 34.175781 168.476562 33.738281 168.300781 33.3125 C 168.128906 32.890625 167.878906 32.519531 167.554688 32.195312 C 167.234375 31.875 166.863281 31.625 166.441406 31.449219 C 166.019531 31.273438 165.578125 31.1875 165.125 31.1875 Z M 89.429688 31.1875 C 88.972656 31.1875 88.535156 31.273438 88.113281 31.449219 C 87.691406 31.625 87.320312 31.875 86.996094 32.195312 C 86.675781 32.519531 86.425781 32.890625 86.25 33.3125 C 86.078125 33.738281 85.988281 34.175781 85.988281 34.632812 C 85.988281 35.089844 86.078125 35.527344 86.25 35.949219 C 86.425781 36.375 86.675781 36.746094 86.996094 37.070312 C 87.320312 37.390625 87.691406 37.640625 88.113281 37.816406 C 88.535156 37.992188 88.972656 38.078125 89.429688 38.078125 C 89.886719 38.078125 90.324219 37.992188 90.746094 37.816406 C 91.167969 37.640625 91.539062 37.390625 91.863281 37.070312 C 92.1875 36.746094 92.433594 36.375 92.609375 35.949219 C 92.785156 35.527344 92.871094 35.089844 92.871094 34.632812 C 92.871094 34.175781 92.785156 33.738281 92.609375 33.3125 C 92.433594 32.890625 92.1875 32.519531 91.863281 32.195312 C 91.539062 31.875 91.167969 31.625 90.746094 31.449219 C 90.324219 31.273438 89.886719 31.1875 89.429688 31.1875 Z M 89.429688 31.1875 " fill-opacity="1" fill-rule="nonzero"/><path fill="#4dd0e1" d="M 172.003906 124.203125 C 172.003906 140.648438 160.929688 158.652344 126.210938 158.652344 C 98.265625 158.652344 82.550781 140.648438 82.550781 124.203125 C 82.550781 106.976562 85.988281 104.203125 85.988281 89.753906 C 85.988281 73.601562 85.988281 65.636719 85.988281 55.304688 C 85.988281 38.855469 96.574219 17.40625 126.210938 17.40625 C 155.847656 17.40625 168.5625 31.15625 168.5625 51.859375 C 168.5625 62.191406 167.75 70.644531 168.5625 86.308594 C 169.203125 98.578125 172.003906 113.867188 172.003906 124.203125 Z M 172.003906 124.203125 " fill-opacity="1" fill-rule="nonzero"/><path fill="#f5f5f5" d="M 144.480469 27.742188 C 143.574219 27.742188 142.679688 27.832031 141.792969 28.007812 C 140.910156 28.183594 140.046875 28.445312 139.214844 28.792969 C 138.378906 29.136719 137.585938 29.5625 136.832031 30.066406 C 136.082031 30.566406 135.386719 31.140625 134.75 31.777344 C 134.109375 32.417969 133.539062 33.113281 133.035156 33.867188 C 132.535156 34.621094 132.109375 35.414062 131.765625 36.25 C 131.417969 37.085938 131.15625 37.945312 130.980469 38.835938 C 130.804688 39.722656 130.71875 40.617188 130.71875 41.523438 C 130.71875 42.425781 130.804688 43.324219 130.980469 44.210938 C 131.15625 45.097656 131.417969 45.960938 131.765625 46.796875 C 132.109375 47.632812 132.535156 48.425781 133.035156 49.179688 C 133.539062 49.929688 134.109375 50.625 134.75 51.265625 C 135.386719 51.90625 136.082031 52.476562 136.832031 52.980469 C 137.585938 53.484375 138.378906 53.90625 139.214844 54.253906 C 140.046875 54.601562 140.910156 54.863281 141.792969 55.039062 C 142.679688 55.214844 143.574219 55.304688 144.480469 55.304688 C 145.382812 55.304688 146.277344 55.214844 147.164062 55.039062 C 148.050781 54.863281 148.910156 54.601562 149.746094 54.253906 C 150.582031 53.90625 151.375 53.484375 152.125 52.980469 C 152.878906 52.476562 153.570312 51.90625 154.210938 51.265625 C 154.851562 50.625 155.421875 49.929688 155.921875 49.179688 C 156.425781 48.425781 156.847656 47.632812 157.195312 46.796875 C 157.539062 45.960938 157.800781 45.097656 157.976562 44.210938 C 158.152344 43.324219 158.242188 42.425781 158.242188 41.523438 C 158.242188 40.617188 158.152344 39.722656 157.976562 38.835938 C 157.800781 37.945312 157.539062 37.085938 157.195312 36.25 C 156.847656 35.414062 156.425781 34.621094 155.921875 33.867188 C 155.421875 33.113281 154.851562 32.417969 154.210938 31.777344 C 153.570312 31.140625 152.878906 30.566406 152.125 30.066406 C 151.375 29.5625 150.582031 29.136719 149.746094 28.792969 C 148.910156 28.445312 148.050781 28.183594 147.164062 28.007812 C 146.277344 27.832031 145.382812 27.742188 144.480469 27.742188 Z M 110.074219 27.742188 C 109.171875 27.742188 108.273438 27.832031 107.390625 28.007812 C 106.503906 28.183594 105.640625 28.445312 104.808594 28.792969 C 103.972656 29.136719 103.179688 29.5625 102.429688 30.066406 C 101.675781 30.566406 100.980469 31.140625 100.34375 31.777344 C 99.703125 32.417969 99.132812 33.113281 98.628906 33.867188 C 98.128906 34.621094 97.703125 35.414062 97.359375 36.25 C 97.011719 37.085938 96.753906 37.945312 96.574219 38.835938 C 96.398438 39.722656 96.3125 40.617188 96.3125 41.523438 C 96.3125 42.425781 96.398438 43.324219 96.574219 44.210938 C 96.753906 45.097656 97.011719 45.960938 97.359375 46.796875 C 97.703125 47.632812 98.128906 48.425781 98.628906 49.179688 C 99.132812 49.929688 99.703125 50.625 100.34375 51.265625 C 100.980469 51.90625 101.675781 52.476562 102.429688 52.980469 C 103.179688 53.484375 103.972656 53.90625 104.808594 54.253906 C 105.640625 54.601562 106.503906 54.863281 107.390625 55.039062 C 108.273438 55.214844 109.171875 55.304688 110.074219 55.304688 C 110.976562 55.304688 111.871094 55.214844 112.757812 55.039062 C 113.644531 54.863281 114.503906 54.601562 115.339844 54.253906 C 116.175781 53.90625 116.96875 53.484375 117.71875 52.980469 C 118.472656 52.476562 119.167969 51.90625 119.804688 51.265625 C 120.445312 50.625 121.015625 49.929688 121.515625 49.179688 C 122.019531 48.425781 122.441406 47.632812 122.789062 46.796875 C 123.132812 45.960938 123.394531 45.097656 123.570312 44.210938 C 123.746094 43.324219 123.835938 42.425781 123.835938 41.523438 C 123.835938 40.617188 123.746094 39.722656 123.570312 38.835938 C 123.394531 37.945312 123.132812 37.085938 122.789062 36.25 C 122.441406 35.414062 122.019531 34.621094 121.515625 33.867188 C 121.015625 33.113281 120.445312 32.417969 119.804688 31.777344 C 119.167969 31.140625 118.472656 30.566406 117.71875 30.066406 C 116.96875 29.5625 116.175781 29.136719 115.339844 28.792969 C 114.503906 28.445312 113.644531 28.183594 112.757812 28.007812 C 111.871094 27.832031 110.976562 27.742188 110.074219 27.742188 Z M 110.074219 27.742188 " fill-opacity="1" fill-rule="nonzero"/><path fill="#eeeeee" d="M 127.277344 75.972656 C 127.277344 77.875 128.816406 79.417969 130.71875 79.417969 C 132.617188 79.417969 134.15625 77.875 134.15625 75.972656 L 134.15625 65.636719 L 127.277344 65.636719 Z M 120.394531 75.972656 C 120.394531 77.875 121.9375 79.417969 123.835938 79.417969 C 125.734375 79.417969 127.277344 77.875 127.277344 75.972656 L 127.277344 65.636719 L 120.394531 65.636719 Z M 120.394531 75.972656 " fill-opacity="1" fill-rule="nonzero"/><path fill="#ffcc80" d="M 135.878906 69.082031 C 134.460938 69.082031 133.632812 68.789062 132.398438 68.375 C 129.046875 67.246094 125.445312 67.253906 122.089844 68.382812 C 120.871094 68.792969 120.085938 69.082031 118.675781 69.082031 C 114.085938 69.082031 113.515625 65.636719 113.515625 63.914062 C 113.515625 58.746094 118.675781 55.304688 123.835938 55.304688 C 126.710938 55.304688 127.84375 55.304688 130.71875 55.304688 C 135.878906 55.304688 141.039062 58.746094 141.039062 63.914062 C 141.039062 65.636719 140.46875 69.082031 135.878906 69.082031 Z M 135.878906 69.082031 " fill-opacity="1" fill-rule="nonzero"/><path fill="#424242" d="M 137.597656 38.078125 C 137.140625 38.078125 136.703125 38.164062 136.28125 38.339844 C 135.859375 38.515625 135.488281 38.761719 135.164062 39.085938 C 134.84375 39.410156 134.59375 39.78125 134.417969 40.203125 C 134.246094 40.625 134.15625 41.066406 134.15625 41.523438 C 134.15625 41.980469 134.246094 42.417969 134.417969 42.839844 C 134.59375 43.261719 134.84375 43.636719 135.164062 43.957031 C 135.488281 44.28125 135.859375 44.53125 136.28125 44.707031 C 136.703125 44.878906 137.140625 44.96875 137.597656 44.96875 C 138.054688 44.96875 138.492188 44.878906 138.914062 44.707031 C 139.335938 44.53125 139.707031 44.28125 140.03125 43.957031 C 140.355469 43.636719 140.601562 43.261719 140.777344 42.839844 C 140.953125 42.417969 141.039062 41.980469 141.039062 41.523438 C 141.039062 41.066406 140.953125 40.625 140.777344 40.203125 C 140.601562 39.78125 140.355469 39.410156 140.03125 39.085938 C 139.707031 38.761719 139.335938 38.515625 138.914062 38.339844 C 138.492188 38.164062 138.054688 38.078125 137.597656 38.078125 Z M 103.191406 38.078125 C 102.738281 38.078125 102.296875 38.164062 101.875 38.339844 C 101.453125 38.515625 101.082031 38.761719 100.757812 39.085938 C 100.4375 39.410156 100.1875 39.78125 100.015625 40.203125 C 99.839844 40.625 99.753906 41.066406 99.753906 41.523438 C 99.753906 41.980469 99.839844 42.417969 100.015625 42.839844 C 100.1875 43.261719 100.4375 43.636719 100.757812 43.957031 C 101.082031 44.28125 101.453125 44.53125 101.875 44.707031 C 102.296875 44.878906 102.738281 44.96875 103.191406 44.96875 C 103.648438 44.96875 104.085938 44.878906 104.507812 44.707031 C 104.929688 44.53125 105.304688 44.28125 105.625 43.957031 C 105.949219 43.636719 106.195312 43.261719 106.371094 42.839844 C 106.546875 42.417969 106.632812 41.980469 106.632812 41.523438 C 106.632812 41.066406 106.546875 40.625 106.371094 40.203125 C 106.195312 39.78125 105.949219 39.410156 105.625 39.085938 C 105.304688 38.761719 104.929688 38.515625 104.507812 38.339844 C 104.085938 38.164062 103.648438 38.078125 103.191406 38.078125 Z M 127.277344 51.859375 C 126.824219 51.859375 126.378906 51.878906 125.933594 51.925781 C 125.492188 51.96875 125.0625 52.035156 124.644531 52.121094 C 124.226562 52.207031 123.828125 52.3125 123.453125 52.4375 C 123.078125 52.5625 122.730469 52.707031 122.410156 52.867188 C 122.089844 53.027344 121.804688 53.199219 121.554688 53.390625 C 121.304688 53.578125 121.09375 53.777344 120.917969 53.984375 C 120.746094 54.195312 120.617188 54.410156 120.527344 54.628906 C 120.441406 54.851562 120.394531 55.078125 120.394531 55.304688 C 120.394531 55.527344 120.441406 55.753906 120.527344 55.976562 C 120.617188 56.195312 120.746094 56.410156 120.917969 56.621094 C 121.09375 56.828125 121.304688 57.027344 121.554688 57.214844 C 121.804688 57.40625 122.089844 57.578125 122.410156 57.738281 C 122.730469 57.898438 123.078125 58.042969 123.453125 58.167969 C 123.828125 58.292969 124.226562 58.398438 124.644531 58.484375 C 125.0625 58.570312 125.492188 58.636719 125.933594 58.679688 C 126.378906 58.726562 126.824219 58.746094 127.277344 58.746094 C 127.730469 58.746094 128.175781 58.726562 128.621094 58.679688 C 129.0625 58.636719 129.492188 58.570312 129.910156 58.484375 C 130.328125 58.398438 130.722656 58.292969 131.101562 58.167969 C 131.476562 58.042969 131.824219 57.898438 132.140625 57.738281 C 132.460938 57.578125 132.746094 57.40625 133 57.214844 C 133.25 57.027344 133.460938 56.828125 133.632812 56.621094 C 133.808594 56.410156 133.9375 56.195312 134.027344 55.976562 C 134.113281 55.753906 134.15625 55.527344 134.15625 55.304688 C 134.15625 55.078125 134.113281 54.851562 134.027344 54.628906 C 133.9375 54.410156 133.808594 54.195312 133.632812 53.984375 C 133.460938 53.777344 133.25 53.578125 133 53.390625 C 132.746094 53.199219 132.460938 53.027344 132.140625 52.867188 C 131.824219 52.707031 131.476562 52.5625 131.101562 52.4375 C 130.722656 52.3125 130.328125 52.207031 129.910156 52.121094 C 129.492188 52.035156 129.0625 51.96875 128.621094 51.925781 C 128.175781 51.878906 127.730469 51.859375 127.277344 51.859375 Z M 127.277344 51.859375 " fill-opacity="1" fill-rule="nonzero"/><g fill="#79dae9" fill-opacity="1"><g transform="translate(214.144445, 98.007949)"><g><path d="M 43.167969 -36.539062 L 19.535156 -36.539062 L 19.535156 -49.011719 L 47.527344 -49.011719 L 47.527344 -61.917969 L 5.320312 -61.917969 L 5.320312 0 L 19.535156 0 L 19.535156 -23.632812 L 43.167969 -23.632812 Z M 43.167969 -36.539062 "/></g></g></g><g fill="#79dae9" fill-opacity="1"><g transform="translate(263.846957, 98.007949)"><g><path d="M 17.527344 -45.347656 L 4.359375 -45.347656 L 4.359375 0 L 17.527344 0 Z M 10.902344 -62.703125 C 7.238281 -62.703125 4.273438 -59.738281 4.273438 -56.074219 C 4.273438 -52.414062 7.238281 -49.449219 10.902344 -49.449219 C 14.5625 -49.449219 17.527344 -52.414062 17.527344 -56.074219 C 17.527344 -59.738281 14.5625 -62.703125 10.902344 -62.703125 Z M 10.902344 -62.703125 "/></g></g></g><g fill="#79dae9" fill-opacity="1"><g transform="translate(285.820696, 98.007949)"><g><path d="M 23.984375 1.308594 C 37.675781 1.308594 44.476562 -5.058594 44.476562 -17.703125 L 44.476562 -28.605469 C 44.476562 -40.203125 38.199219 -46.65625 25.640625 -46.65625 C 22.9375 -46.65625 20.144531 -46.394531 17.441406 -45.785156 L 17.441406 -64.535156 L 4.273438 -64.535156 L 4.273438 -3.050781 L 7.5 -1.570312 C 11.6875 0.347656 17.179688 1.308594 23.984375 1.308594 Z M 17.441406 -33.925781 C 19.621094 -34.535156 21.714844 -34.882812 23.894531 -34.882812 C 28.777344 -34.882812 31.222656 -32.789062 31.222656 -28.515625 L 31.222656 -17.703125 C 31.222656 -12.90625 28.605469 -10.464844 23.285156 -10.464844 C 21.015625 -10.464844 19.1875 -10.726562 17.703125 -11.164062 L 17.441406 -11.25 Z M 17.441406 -33.925781 "/></g></g></g><g fill="#79dae9" fill-opacity="1"><g transform="translate(333.343272, 98.007949)"><g><path d="M 23.894531 -46.65625 C 10.378906 -46.65625 2.964844 -39.855469 2.964844 -27.296875 L 2.964844 -18.050781 C 2.964844 -6.277344 9.503906 1.308594 23.808594 1.308594 C 33.226562 1.308594 39.59375 -1.394531 42.996094 -6.800781 L 44.390625 -9.070312 L 33.488281 -14.652344 L 32.269531 -12.996094 C 30.523438 -10.640625 27.734375 -9.503906 23.984375 -9.503906 C 18.75 -9.503906 16.132812 -11.773438 16.132812 -16.394531 L 16.132812 -18.574219 L 44.914062 -18.574219 L 44.914062 -28.257812 C 44.914062 -38.984375 37.761719 -46.65625 23.894531 -46.65625 Z M 31.65625 -28.082031 L 16.132812 -28.082031 L 16.132812 -29.476562 C 16.132812 -33.925781 18.75 -36.191406 23.894531 -36.191406 C 29.039062 -36.191406 31.65625 -33.925781 31.65625 -29.476562 Z M 31.65625 -28.082031 "/></g></g></g><g fill="#79dae9" fill-opacity="1"><g transform="translate(380.691446, 98.007949)"><g><path d="M 7.761719 -43.953125 C 4.972656 -42.820312 4.273438 -41.773438 4.273438 -38.894531 L 4.273438 0 L 17.441406 0 L 17.441406 -33.664062 C 17.441406 -34.011719 17.617188 -34.1875 17.964844 -34.273438 C 19.796875 -34.710938 21.800781 -34.882812 24.15625 -34.882812 L 30.609375 -34.882812 L 30.609375 -46.65625 L 24.507812 -46.65625 C 17.265625 -46.394531 11.6875 -45.523438 7.761719 -43.953125 Z M 7.761719 -43.953125 "/></g></g></g><g fill="#79dae9" fill-opacity="1"><g transform="translate(411.908109, 98.007949)"><g><path d="M 29.390625 -11.6875 C 21.714844 -11.6875 17.878906 -15.175781 17.878906 -22.0625 L 17.878906 -39.855469 C 17.878906 -46.746094 21.714844 -50.234375 29.390625 -50.234375 C 35.058594 -50.234375 38.722656 -48.140625 40.378906 -43.867188 L 41.6875 -40.550781 L 55.03125 -45.261719 L 53.808594 -48.574219 C 50.234375 -58.34375 42.121094 -63.226562 29.390625 -63.226562 C 13.082031 -63.226562 3.664062 -54.417969 3.664062 -39.769531 L 3.664062 -22.152344 C 3.664062 -7.5 13.082031 1.308594 29.390625 1.308594 C 45.523438 1.308594 55.203125 -7.238281 55.203125 -19.449219 L 55.203125 -34.972656 L 26.949219 -34.972656 L 26.949219 -22.414062 L 41.074219 -22.414062 L 41.074219 -19.273438 C 41.074219 -14.824219 36.628906 -11.6875 29.390625 -11.6875 Z M 29.390625 -11.6875 "/></g></g></g><g fill="#79dae9" fill-opacity="1"><g transform="translate(470.24316, 98.007949)"><g><path d="M 44.652344 -28.257812 C 44.652344 -39.855469 37.414062 -46.65625 23.808594 -46.65625 C 10.289062 -46.65625 3.050781 -39.855469 3.050781 -28.257812 L 3.050781 -17.007812 C 3.050781 -5.496094 10.289062 1.308594 23.808594 1.308594 C 37.414062 1.308594 44.652344 -5.40625 44.652344 -17.007812 Z M 23.808594 -34.972656 C 28.953125 -34.972656 31.484375 -32.789062 31.484375 -28.429688 L 31.484375 -16.917969 C 31.484375 -12.558594 28.953125 -10.378906 23.808594 -10.378906 C 18.75 -10.378906 16.222656 -12.558594 16.222656 -16.917969 L 16.222656 -28.429688 C 16.222656 -32.789062 18.75 -34.972656 23.808594 -34.972656 Z M 23.808594 -34.972656 "/></g></g></g><path stroke-linecap="butt" transform="matrix(0.897496, 0, 0, 0.897496, 210.290194, 34.021455)" fill="none" stroke-linejoin="miter" d="M 48.110025 26.290626 L 21.778084 26.290626 L 21.778084 12.389102 L 52.949879 12.389102 L 52.949879 -1.986832 L 5.931043 -1.986832 L 5.931043 66.998501 L 21.778084 66.998501 L 21.778084 40.66656 L 48.110025 40.66656 Z M 74.903319 16.471641 L 60.24448 16.471641 L 60.24448 66.998501 L 74.903319 66.998501 Z M 67.526023 -2.866015 C 63.443484 -2.866015 60.148727 0.433095 60.148727 4.511281 C 60.148727 8.59382 63.443484 11.914692 67.526023 11.914692 C 71.60421 11.914692 74.903319 8.59382 74.903319 4.511281 C 74.903319 0.433095 71.60421 -2.866015 67.526023 -2.866015 Z M 106.575639 68.447846 C 121.830755 68.447846 129.421318 61.353455 129.421318 47.28654 L 129.421318 35.139028 C 129.421318 22.212439 122.42268 15.022296 108.425404 15.022296 C 105.413552 15.022296 102.305947 15.305201 99.289743 15.99723 L 99.289743 -4.902932 L 84.630904 -4.902932 L 84.630904 63.607991 L 88.212919 65.244489 C 92.887382 67.381511 99.006838 68.447846 106.575639 68.447846 Z M 99.289743 29.211077 C 101.735785 28.519048 104.059959 28.14039 106.479887 28.14039 C 111.93778 28.14039 114.640612 30.464565 114.640612 35.234781 L 114.640612 47.28654 C 114.640612 52.622567 111.724513 55.329751 105.813971 55.329751 C 103.27653 55.329751 101.23526 55.042494 99.577001 54.568084 L 99.289743 54.472331 Z M 159.431026 15.022296 C 144.367415 15.022296 136.110937 22.591097 136.110937 36.588373 L 136.110937 46.881768 C 136.110937 59.999863 143.39248 68.447846 159.335274 68.447846 C 169.846288 68.447846 176.936327 65.435994 180.709846 59.434052 L 182.276706 56.892258 L 170.129194 50.67705 L 168.775601 52.526814 C 166.830084 55.138246 163.72248 56.417848 159.526779 56.417848 C 153.71199 56.417848 150.795891 53.880407 150.795891 48.731533 L 150.795891 46.311606 L 182.846868 46.311606 L 182.846868 35.517686 C 182.846868 23.561679 174.89941 15.022296 159.431026 15.022296 Z M 168.087924 35.709191 L 150.795891 35.709191 L 150.795891 34.168446 C 150.795891 29.211077 153.71199 26.669283 159.431026 26.669283 C 165.171825 26.669283 168.087924 29.211077 168.087924 34.168446 Z M 194.22836 18.034148 C 191.094641 19.291987 190.337326 20.454075 190.337326 23.657432 L 190.337326 66.998501 L 204.996165 66.998501 L 204.996165 29.493982 C 204.996165 29.115325 205.18767 28.902058 205.592442 28.806305 C 207.62936 28.331895 209.862134 28.14039 212.495328 28.14039 L 219.681119 28.14039 L 219.681119 15.022296 L 212.873986 15.022296 C 204.809013 15.305201 198.593804 16.280136 194.22836 18.034148 Z M 253.090041 53.976159 C 244.546306 53.976159 240.276614 50.085125 240.276614 42.424924 L 240.276614 22.591097 C 240.276614 14.926543 244.546306 11.035509 253.090041 11.035509 C 259.422764 11.035509 263.500951 13.364036 265.328954 18.1299 L 266.80006 21.807667 L 281.676519 16.563041 L 280.296812 12.889626 C 276.314378 1.999954 267.27447 -3.457939 253.090041 -3.457939 C 234.914473 -3.457939 224.429573 6.365398 224.429573 22.686849 L 224.429573 42.329172 C 224.429573 58.650623 234.914473 68.447846 253.090041 68.447846 C 271.069752 68.447846 281.863672 58.933528 281.863672 45.341023 L 281.863672 28.044638 L 250.382857 28.044638 L 250.382857 42.020152 L 266.112383 42.020152 L 266.112383 45.532528 C 266.112383 50.489897 261.155014 53.976159 253.090041 53.976159 Z M 335.093364 35.517686 C 335.093364 22.591097 327.028391 15.022296 311.869027 15.022296 C 296.805416 15.022296 288.740443 22.591097 288.740443 35.517686 L 288.740443 48.043856 C 288.740443 60.879045 296.805416 68.447846 311.869027 68.447846 C 327.028391 68.447846 335.093364 60.974797 335.093364 48.043856 Z M 311.869027 28.044638 C 317.609826 28.044638 320.434525 30.464565 320.434525 35.330533 L 320.434525 48.139608 C 320.434525 53.001224 317.609826 55.447266 311.869027 55.447266 C 306.250096 55.447266 303.425397 53.001224 303.425397 48.139608 L 303.425397 35.330533 C 303.425397 30.464565 306.250096 28.044638 311.869027 28.044638 Z M 311.869027 28.044638 " stroke="#09b7d3" stroke-width="3.643969" stroke-opacity="1" stroke-miterlimit="4"/><g fill="#ffffff" fill-opacity="0.4"><g transform="translate(208.823899, 153.408392)"><g><path d="M 8.46875 -3.367188 C 6.257812 -3.367188 5.152344 -4.371094 5.152344 -6.359375 L 5.152344 -11.484375 C 5.152344 -13.46875 6.257812 -14.476562 8.46875 -14.476562 C 10.101562 -14.476562 11.15625 -13.871094 11.636719 -12.640625 L 12.011719 -11.683594 L 15.855469 -13.042969 L 15.503906 -13.996094 C 14.476562 -16.8125 12.136719 -18.21875 8.46875 -18.21875 C 3.769531 -18.21875 1.054688 -15.679688 1.054688 -11.460938 L 1.054688 -6.382812 C 1.054688 -2.160156 3.769531 0.375 8.46875 0.375 C 13.117188 0.375 15.90625 -2.085938 15.90625 -5.605469 L 15.90625 -10.078125 L 7.765625 -10.078125 L 7.765625 -6.457031 L 11.835938 -6.457031 L 11.835938 -5.554688 C 11.835938 -4.273438 10.554688 -3.367188 8.46875 -3.367188 Z M 8.46875 -3.367188 "/></g></g></g><g fill="#ffffff" fill-opacity="0.4"><g transform="translate(225.635859, 153.408392)"><g><path d="M 12.867188 -8.140625 C 12.867188 -11.484375 10.78125 -13.445312 6.859375 -13.445312 C 2.964844 -13.445312 0.878906 -11.484375 0.878906 -8.140625 L 0.878906 -4.898438 C 0.878906 -1.582031 2.964844 0.375 6.859375 0.375 C 10.78125 0.375 12.867188 -1.558594 12.867188 -4.898438 Z M 6.859375 -10.078125 C 8.34375 -10.078125 9.070312 -9.449219 9.070312 -8.191406 L 9.070312 -4.875 C 9.070312 -3.617188 8.34375 -2.992188 6.859375 -2.992188 C 5.402344 -2.992188 4.675781 -3.617188 4.675781 -4.875 L 4.675781 -8.191406 C 4.675781 -9.449219 5.402344 -10.078125 6.859375 -10.078125 Z M 6.859375 -10.078125 "/></g></g></g><g fill="#ffffff" fill-opacity="0.4"><g transform="translate(239.381971, 153.408392)"><g/></g></g><g fill="#ffffff" fill-opacity="0.4"><g transform="translate(244.458228, 153.408392)"><g><path d="M 12.4375 -10.53125 L 5.628906 -10.53125 L 5.628906 -14.121094 L 13.695312 -14.121094 L 13.695312 -17.84375 L 1.53125 -17.84375 L 1.53125 0 L 5.628906 0 L 5.628906 -6.808594 L 12.4375 -6.808594 Z M 12.4375 -10.53125 "/></g></g></g><g fill="#ffffff" fill-opacity="0.4"><g transform="translate(258.782325, 153.408392)"><g><path d="M 5.050781 -13.066406 L 1.257812 -13.066406 L 1.257812 0 L 5.050781 0 Z M 3.140625 -18.070312 C 2.085938 -18.070312 1.230469 -17.214844 1.230469 -16.160156 C 1.230469 -15.101562 2.085938 -14.25 3.140625 -14.25 C 4.195312 -14.25 5.050781 -15.101562 5.050781 -16.160156 C 5.050781 -17.214844 4.195312 -18.070312 3.140625 -18.070312 Z M 3.140625 -18.070312 "/></g></g></g><g fill="#ffffff" fill-opacity="0.4"><g transform="translate(265.115084, 153.408392)"><g><path d="M 6.910156 0.375 C 10.855469 0.375 12.816406 -1.457031 12.816406 -5.101562 L 12.816406 -8.242188 C 12.816406 -11.585938 11.007812 -13.445312 7.386719 -13.445312 C 6.609375 -13.445312 5.804688 -13.367188 5.027344 -13.191406 L 5.027344 -18.597656 L 1.230469 -18.597656 L 1.230469 -0.878906 L 2.160156 -0.453125 C 3.367188 0.101562 4.949219 0.375 6.910156 0.375 Z M 5.027344 -9.777344 C 5.652344 -9.953125 6.257812 -10.050781 6.886719 -10.050781 C 8.292969 -10.050781 8.996094 -9.449219 8.996094 -8.21875 L 8.996094 -5.101562 C 8.996094 -3.71875 8.242188 -3.015625 6.710938 -3.015625 C 6.054688 -3.015625 5.527344 -3.089844 5.101562 -3.214844 L 5.027344 -3.242188 Z M 5.027344 -9.777344 "/></g></g></g><g fill="#ffffff" fill-opacity="0.4"><g transform="translate(278.810937, 153.408392)"><g><path d="M 6.886719 -13.445312 C 2.992188 -13.445312 0.855469 -11.484375 0.855469 -7.867188 L 0.855469 -5.203125 C 0.855469 -1.808594 2.738281 0.375 6.859375 0.375 C 9.574219 0.375 11.410156 -0.402344 12.390625 -1.960938 L 12.792969 -2.613281 L 9.648438 -4.222656 L 9.296875 -3.746094 C 8.796875 -3.066406 7.992188 -2.738281 6.910156 -2.738281 C 5.402344 -2.738281 4.648438 -3.390625 4.648438 -4.722656 L 4.648438 -5.351562 L 12.941406 -5.351562 L 12.941406 -8.140625 C 12.941406 -11.234375 10.882812 -13.445312 6.886719 -13.445312 Z M 9.121094 -8.09375 L 4.648438 -8.09375 L 4.648438 -8.492188 C 4.648438 -9.777344 5.402344 -10.429688 6.886719 -10.429688 C 8.367188 -10.429688 9.121094 -9.777344 9.121094 -8.492188 Z M 9.121094 -8.09375 "/></g></g></g><g fill="#ffffff" fill-opacity="0.4"><g transform="translate(292.456517, 153.408392)"><g><path d="M 2.238281 -12.664062 C 1.433594 -12.339844 1.230469 -12.039062 1.230469 -11.207031 L 1.230469 0 L 5.027344 0 L 5.027344 -9.699219 C 5.027344 -9.800781 5.078125 -9.851562 5.175781 -9.875 C 5.703125 -10 6.28125 -10.050781 6.960938 -10.050781 L 8.820312 -10.050781 L 8.820312 -13.445312 L 7.0625 -13.445312 C 4.976562 -13.367188 3.367188 -13.117188 2.238281 -12.664062 Z M 2.238281 -12.664062 "/></g></g></g><g fill="#ffffff" fill-opacity="0.4"><g transform="translate(301.45306, 153.408392)"><g/></g></g><g fill="#ffffff" fill-opacity="0.4"><g transform="translate(306.529316, 153.408392)"><g><path d="M 5.628906 0 L 5.628906 -6.332031 L 6.660156 -6.332031 C 8.09375 -6.332031 8.570312 -6.03125 9.148438 -4.851562 L 11.484375 0 L 16.234375 0 L 13.066406 -6.03125 C 12.765625 -6.558594 12.589844 -6.835938 12.539062 -6.910156 C 14.675781 -7.816406 15.453125 -9.875 15.453125 -12.0625 C 15.453125 -15.679688 13.167969 -17.84375 9.523438 -17.84375 L 1.53125 -17.84375 L 1.53125 0 Z M 9.121094 -14.121094 C 10.453125 -14.121094 11.207031 -13.367188 11.207031 -12.0625 C 11.207031 -10.730469 10.453125 -10 9.121094 -10 L 5.628906 -10 L 5.628906 -14.121094 Z M 9.121094 -14.121094 "/></g></g></g><g fill="#ffffff" fill-opacity="0.4"><g transform="translate(323.014589, 153.408392)"><g><path d="M 5.628906 -7.160156 L 12.4375 -7.160156 L 12.4375 -10.882812 L 5.628906 -10.882812 L 5.628906 -14.121094 L 13.695312 -14.121094 L 13.695312 -17.84375 L 1.53125 -17.84375 L 1.53125 0 L 13.945312 0 L 13.945312 -3.746094 L 5.628906 -3.746094 Z M 5.628906 -7.160156 "/></g></g></g><g fill="#ffffff" fill-opacity="0.4"><g transform="translate(337.690503, 153.408392)"><g><path d="M 6.257812 -11.410156 C 5.453125 -11.683594 5.101562 -12.136719 5.101562 -12.765625 C 5.101562 -13.972656 5.980469 -14.5 8.066406 -14.5 C 9.5 -14.5 10.480469 -13.945312 11.03125 -12.839844 L 11.359375 -12.1875 L 15.128906 -13.820312 L 14.800781 -14.523438 C 13.621094 -17.039062 11.660156 -18.21875 8.066406 -18.21875 C 3.519531 -18.21875 0.90625 -15.933594 0.90625 -12.589844 C 1.15625 -8.066406 4.171875 -7.5625 7.867188 -7.113281 C 10.050781 -6.886719 11.257812 -6.433594 11.257812 -5.300781 C 11.257812 -3.96875 10.152344 -3.316406 7.914062 -3.316406 C 6.28125 -3.316406 5.203125 -3.894531 4.675781 -5.050781 C 4.648438 -5.125 4.246094 -5.980469 4.246094 -5.980469 L 0.503906 -4.648438 L 0.855469 -3.695312 C 1.859375 -0.980469 4.222656 0.375 7.914062 0.375 C 12.515625 0.375 15.378906 -1.882812 15.378906 -5.378906 C 15.378906 -9.550781 12.3125 -10.503906 8.871094 -10.90625 C 7.640625 -11.058594 7.035156 -11.132812 6.257812 -11.410156 Z M 6.257812 -11.410156 "/></g></g></g><g fill="#ffffff" fill-opacity="0.4"><g transform="translate(353.748569, 153.408392)"><g><path d="M 9.375 0 L 9.375 -14.121094 L 14.324219 -14.121094 L 14.324219 -17.84375 L 0.328125 -17.84375 L 0.328125 -14.121094 L 5.300781 -14.121094 L 5.300781 0 Z M 9.375 0 "/></g></g></g><g fill="#ffffff" fill-opacity="0.4"><g transform="translate(368.399354, 153.408392)"><g/></g></g><g fill="#ffffff" fill-opacity="0.4"><g transform="translate(373.47561, 153.408392)"><g><path d="M 12.539062 0 L 17.039062 0 L 10.351562 -17.84375 L 6.535156 -17.84375 L -0.175781 0 L 4.144531 0 L 5.226562 -3.292969 L 11.460938 -3.292969 Z M 10.378906 -6.609375 L 6.332031 -6.609375 L 8.367188 -12.714844 Z M 10.378906 -6.609375 "/></g></g></g><g fill="#ffffff" fill-opacity="0.4"><g transform="translate(390.362973, 153.408392)"><g><path d="M 9.296875 -5.804688 C 13.117188 -5.804688 15.453125 -8.066406 15.453125 -11.8125 C 15.453125 -15.554688 13.09375 -17.84375 9.296875 -17.84375 L 1.53125 -17.84375 L 1.53125 0 L 5.628906 0 L 5.628906 -5.804688 Z M 8.871094 -14.121094 C 10.351562 -14.121094 11.207031 -13.242188 11.207031 -11.8125 C 11.207031 -10.378906 10.351562 -9.550781 8.871094 -9.550781 L 5.628906 -9.550781 L 5.628906 -14.121094 Z M 8.871094 -14.121094 "/></g></g></g><g fill="#ffffff" fill-opacity="0.4"><g transform="translate(406.421039, 153.408392)"><g><path d="M 5.628906 -17.84375 L 1.53125 -17.84375 L 1.53125 0 L 5.628906 0 Z M 5.628906 -17.84375 "/></g></g></g><g fill="#ffffff" fill-opacity="0.4"><g transform="translate(413.583081, 153.408392)"><g/></g></g><g fill="#ffffff" fill-opacity="0.4"><g transform="translate(418.659337, 153.408392)"><g><path d="M 6.183594 -13.445312 C 2.6875 -13.445312 0.777344 -11.785156 0.777344 -9.246094 C 0.777344 -6.082031 3.265625 -5.378906 5.929688 -5.125 C 8.015625 -4.925781 8.59375 -4.722656 8.59375 -3.921875 C 8.59375 -3.242188 7.867188 -2.890625 6.433594 -2.890625 C 5.203125 -2.890625 4.449219 -3.214844 4.144531 -3.84375 L 3.871094 -4.449219 L 0.476562 -3.34375 L 0.777344 -2.613281 C 1.582031 -0.628906 3.519531 0.375 6.558594 0.375 C 10.152344 0.375 12.214844 -1.355469 12.214844 -3.996094 C 12.214844 -6.808594 10.53125 -7.765625 6.886719 -8.117188 C 5.050781 -8.292969 4.449219 -8.519531 4.449219 -9.246094 C 4.449219 -9.851562 5.078125 -10.152344 6.308594 -10.152344 C 7.3125 -10.152344 8.042969 -9.824219 8.492188 -9.199219 L 8.847656 -8.695312 L 12.136719 -10.078125 L 11.761719 -10.753906 C 10.804688 -12.539062 8.945312 -13.445312 6.183594 -13.445312 Z M 6.183594 -13.445312 "/></g></g></g><g fill="#ffffff" fill-opacity="0.4"><g transform="translate(431.475634, 153.408392)"><g><path d="M 0.226562 -13.066406 L 0.226562 -9.699219 L 2.488281 -9.699219 L 2.488281 -5.328125 C 2.488281 -0.777344 4.273438 0.351562 8.59375 0.351562 L 9.523438 0.351562 L 9.523438 -3.140625 L 8.59375 -3.140625 C 6.859375 -3.140625 6.28125 -3.59375 6.28125 -5.476562 L 6.28125 -9.699219 L 9.523438 -9.699219 L 9.523438 -13.066406 L 6.28125 -13.066406 L 6.28125 -16.082031 L 2.488281 -16.082031 L 2.488281 -13.066406 Z M 0.226562 -13.066406 "/></g></g></g><g fill="#ffffff" fill-opacity="0.4"><g transform="translate(441.552771, 153.408392)"><g><path d="M 8.316406 -7.839844 C 7.789062 -7.867188 7.1875 -7.890625 6.535156 -7.890625 C 2.3125 -7.890625 0.679688 -6.859375 0.679688 -3.769531 C 0.679688 -0.929688 2.085938 0.375 6.433594 0.375 C 8.59375 0.375 10.175781 0.152344 11.183594 -0.300781 C 11.285156 -0.351562 12.113281 -0.730469 12.113281 -0.730469 L 12.113281 -8.140625 C 12.113281 -11.683594 10.253906 -13.445312 6.507812 -13.445312 C 3.84375 -13.445312 2.0625 -12.566406 1.128906 -10.832031 L 0.753906 -10.101562 L 3.894531 -8.796875 L 4.296875 -9.324219 C 4.773438 -9.953125 5.453125 -10.253906 6.382812 -10.253906 C 7.664062 -10.253906 8.316406 -9.625 8.316406 -8.394531 Z M 6.207031 -5 C 6.585938 -5 8.117188 -4.949219 8.316406 -4.949219 L 8.316406 -2.6875 L 8.09375 -2.664062 C 7.664062 -2.589844 7.011719 -2.5625 6.15625 -2.5625 C 4.851562 -2.5625 4.472656 -2.992188 4.472656 -3.792969 C 4.472656 -4.574219 4.875 -5 6.207031 -5 Z M 6.207031 -5 "/></g></g></g><g fill="#ffffff" fill-opacity="0.4"><g transform="translate(454.720885, 153.408392)"><g><path d="M 2.238281 -12.664062 C 1.433594 -12.339844 1.230469 -12.039062 1.230469 -11.207031 L 1.230469 0 L 5.027344 0 L 5.027344 -9.699219 C 5.027344 -9.800781 5.078125 -9.851562 5.175781 -9.875 C 5.703125 -10 6.28125 -10.050781 6.960938 -10.050781 L 8.820312 -10.050781 L 8.820312 -13.445312 L 7.0625 -13.445312 C 4.976562 -13.367188 3.367188 -13.117188 2.238281 -12.664062 Z M 2.238281 -12.664062 "/></g></g></g><g fill="#ffffff" fill-opacity="0.4"><g transform="translate(463.717428, 153.408392)"><g><path d="M 0.226562 -13.066406 L 0.226562 -9.699219 L 2.488281 -9.699219 L 2.488281 -5.328125 C 2.488281 -0.777344 4.273438 0.351562 8.59375 0.351562 L 9.523438 0.351562 L 9.523438 -3.140625 L 8.59375 -3.140625 C 6.859375 -3.140625 6.28125 -3.59375 6.28125 -5.476562 L 6.28125 -9.699219 L 9.523438 -9.699219 L 9.523438 -13.066406 L 6.28125 -13.066406 L 6.28125 -16.082031 L 2.488281 -16.082031 L 2.488281 -13.066406 Z M 0.226562 -13.066406 "/></g></g></g><g fill="#ffffff" fill-opacity="0.4"><g transform="translate(473.794538, 153.408392)"><g><path d="M 6.886719 -13.445312 C 2.992188 -13.445312 0.855469 -11.484375 0.855469 -7.867188 L 0.855469 -5.203125 C 0.855469 -1.808594 2.738281 0.375 6.859375 0.375 C 9.574219 0.375 11.410156 -0.402344 12.390625 -1.960938 L 12.792969 -2.613281 L 9.648438 -4.222656 L 9.296875 -3.746094 C 8.796875 -3.066406 7.992188 -2.738281 6.910156 -2.738281 C 5.402344 -2.738281 4.648438 -3.390625 4.648438 -4.722656 L 4.648438 -5.351562 L 12.941406 -5.351562 L 12.941406 -8.140625 C 12.941406 -11.234375 10.882812 -13.445312 6.886719 -13.445312 Z M 9.121094 -8.09375 L 4.648438 -8.09375 L 4.648438 -8.492188 C 4.648438 -9.777344 5.402344 -10.429688 6.886719 -10.429688 C 8.367188 -10.429688 9.121094 -9.777344 9.121094 -8.492188 Z M 9.121094 -8.09375 "/></g></g></g><g fill="#ffffff" fill-opacity="0.4"><g transform="translate(487.440104, 153.408392)"><g><path d="M 2.238281 -12.664062 C 1.433594 -12.339844 1.230469 -12.039062 1.230469 -11.207031 L 1.230469 0 L 5.027344 0 L 5.027344 -9.699219 C 5.027344 -9.800781 5.078125 -9.851562 5.175781 -9.875 C 5.703125 -10 6.28125 -10.050781 6.960938 -10.050781 L 8.820312 -10.050781 L 8.820312 -13.445312 L 7.0625 -13.445312 C 4.976562 -13.367188 3.367188 -13.117188 2.238281 -12.664062 Z M 2.238281 -12.664062 "/></g></g></g><g fill="#446389" fill-opacity="1"><g transform="translate(210.290194, 152.845527)"><g><path d="M 8.46875 -3.367188 C 6.257812 -3.367188 5.152344 -4.371094 5.152344 -6.359375 L 5.152344 -11.484375 C 5.152344 -13.46875 6.257812 -14.476562 8.46875 -14.476562 C 10.101562 -14.476562 11.15625 -13.871094 11.636719 -12.640625 L 12.011719 -11.683594 L 15.855469 -13.042969 L 15.503906 -13.996094 C 14.476562 -16.8125 12.136719 -18.21875 8.46875 -18.21875 C 3.769531 -18.21875 1.054688 -15.679688 1.054688 -11.460938 L 1.054688 -6.382812 C 1.054688 -2.160156 3.769531 0.375 8.46875 0.375 C 13.117188 0.375 15.90625 -2.085938 15.90625 -5.605469 L 15.90625 -10.078125 L 7.765625 -10.078125 L 7.765625 -6.457031 L 11.835938 -6.457031 L 11.835938 -5.554688 C 11.835938 -4.273438 10.554688 -3.367188 8.46875 -3.367188 Z M 8.46875 -3.367188 "/></g></g></g><g fill="#446389" fill-opacity="1"><g transform="translate(227.102153, 152.845527)"><g><path d="M 12.867188 -8.140625 C 12.867188 -11.484375 10.78125 -13.445312 6.859375 -13.445312 C 2.964844 -13.445312 0.878906 -11.484375 0.878906 -8.140625 L 0.878906 -4.898438 C 0.878906 -1.582031 2.964844 0.375 6.859375 0.375 C 10.78125 0.375 12.867188 -1.558594 12.867188 -4.898438 Z M 6.859375 -10.078125 C 8.34375 -10.078125 9.070312 -9.449219 9.070312 -8.191406 L 9.070312 -4.875 C 9.070312 -3.617188 8.34375 -2.992188 6.859375 -2.992188 C 5.402344 -2.992188 4.675781 -3.617188 4.675781 -4.875 L 4.675781 -8.191406 C 4.675781 -9.449219 5.402344 -10.078125 6.859375 -10.078125 Z M 6.859375 -10.078125 "/></g></g></g><g fill="#446389" fill-opacity="1"><g transform="translate(240.848265, 152.845527)"><g/></g></g><g fill="#446389" fill-opacity="1"><g transform="translate(245.924522, 152.845527)"><g><path d="M 12.4375 -10.53125 L 5.628906 -10.53125 L 5.628906 -14.121094 L 13.695312 -14.121094 L 13.695312 -17.84375 L 1.53125 -17.84375 L 1.53125 0 L 5.628906 0 L 5.628906 -6.808594 L 12.4375 -6.808594 Z M 12.4375 -10.53125 "/></g></g></g><g fill="#446389" fill-opacity="1"><g transform="translate(260.248619, 152.845527)"><g><path d="M 5.050781 -13.066406 L 1.257812 -13.066406 L 1.257812 0 L 5.050781 0 Z M 3.140625 -18.070312 C 2.085938 -18.070312 1.230469 -17.214844 1.230469 -16.160156 C 1.230469 -15.101562 2.085938 -14.25 3.140625 -14.25 C 4.195312 -14.25 5.050781 -15.101562 5.050781 -16.160156 C 5.050781 -17.214844 4.195312 -18.070312 3.140625 -18.070312 Z M 3.140625 -18.070312 "/></g></g></g><g fill="#446389" fill-opacity="1"><g transform="translate(266.581378, 152.845527)"><g><path d="M 6.910156 0.375 C 10.855469 0.375 12.816406 -1.457031 12.816406 -5.101562 L 12.816406 -8.242188 C 12.816406 -11.585938 11.007812 -13.445312 7.386719 -13.445312 C 6.609375 -13.445312 5.804688 -13.367188 5.027344 -13.191406 L 5.027344 -18.597656 L 1.230469 -18.597656 L 1.230469 -0.878906 L 2.160156 -0.453125 C 3.367188 0.101562 4.949219 0.375 6.910156 0.375 Z M 5.027344 -9.777344 C 5.652344 -9.953125 6.257812 -10.050781 6.886719 -10.050781 C 8.292969 -10.050781 8.996094 -9.449219 8.996094 -8.21875 L 8.996094 -5.101562 C 8.996094 -3.71875 8.242188 -3.015625 6.710938 -3.015625 C 6.054688 -3.015625 5.527344 -3.089844 5.101562 -3.214844 L 5.027344 -3.242188 Z M 5.027344 -9.777344 "/></g></g></g><g fill="#446389" fill-opacity="1"><g transform="translate(280.277231, 152.845527)"><g><path d="M 6.886719 -13.445312 C 2.992188 -13.445312 0.855469 -11.484375 0.855469 -7.867188 L 0.855469 -5.203125 C 0.855469 -1.808594 2.738281 0.375 6.859375 0.375 C 9.574219 0.375 11.410156 -0.402344 12.390625 -1.960938 L 12.792969 -2.613281 L 9.648438 -4.222656 L 9.296875 -3.746094 C 8.796875 -3.066406 7.992188 -2.738281 6.910156 -2.738281 C 5.402344 -2.738281 4.648438 -3.390625 4.648438 -4.722656 L 4.648438 -5.351562 L 12.941406 -5.351562 L 12.941406 -8.140625 C 12.941406 -11.234375 10.882812 -13.445312 6.886719 -13.445312 Z M 9.121094 -8.09375 L 4.648438 -8.09375 L 4.648438 -8.492188 C 4.648438 -9.777344 5.402344 -10.429688 6.886719 -10.429688 C 8.367188 -10.429688 9.121094 -9.777344 9.121094 -8.492188 Z M 9.121094 -8.09375 "/></g></g></g><g fill="#446389" fill-opacity="1"><g transform="translate(293.922811, 152.845527)"><g><path d="M 2.238281 -12.664062 C 1.433594 -12.339844 1.230469 -12.039062 1.230469 -11.207031 L 1.230469 0 L 5.027344 0 L 5.027344 -9.699219 C 5.027344 -9.800781 5.078125 -9.851562 5.175781 -9.875 C 5.703125 -10 6.28125 -10.050781 6.960938 -10.050781 L 8.820312 -10.050781 L 8.820312 -13.445312 L 7.0625 -13.445312 C 4.976562 -13.367188 3.367188 -13.117188 2.238281 -12.664062 Z M 2.238281 -12.664062 "/></g></g></g><g fill="#446389" fill-opacity="1"><g transform="translate(302.919354, 152.845527)"><g/></g></g><g fill="#446389" fill-opacity="1"><g transform="translate(307.995611, 152.845527)"><g><path d="M 5.628906 0 L 5.628906 -6.332031 L 6.660156 -6.332031 C 8.09375 -6.332031 8.570312 -6.03125 9.148438 -4.851562 L 11.484375 0 L 16.234375 0 L 13.066406 -6.03125 C 12.765625 -6.558594 12.589844 -6.835938 12.539062 -6.910156 C 14.675781 -7.816406 15.453125 -9.875 15.453125 -12.0625 C 15.453125 -15.679688 13.167969 -17.84375 9.523438 -17.84375 L 1.53125 -17.84375 L 1.53125 0 Z M 9.121094 -14.121094 C 10.453125 -14.121094 11.207031 -13.367188 11.207031 -12.0625 C 11.207031 -10.730469 10.453125 -10 9.121094 -10 L 5.628906 -10 L 5.628906 -14.121094 Z M 9.121094 -14.121094 "/></g></g></g><g fill="#446389" fill-opacity="1"><g transform="translate(324.480883, 152.845527)"><g><path d="M 5.628906 -7.160156 L 12.4375 -7.160156 L 12.4375 -10.882812 L 5.628906 -10.882812 L 5.628906 -14.121094 L 13.695312 -14.121094 L 13.695312 -17.84375 L 1.53125 -17.84375 L 1.53125 0 L 13.945312 0 L 13.945312 -3.746094 L 5.628906 -3.746094 Z M 5.628906 -7.160156 "/></g></g></g><g fill="#446389" fill-opacity="1"><g transform="translate(339.156797, 152.845527)"><g><path d="M 6.257812 -11.410156 C 5.453125 -11.683594 5.101562 -12.136719 5.101562 -12.765625 C 5.101562 -13.972656 5.980469 -14.5 8.066406 -14.5 C 9.5 -14.5 10.480469 -13.945312 11.03125 -12.839844 L 11.359375 -12.1875 L 15.128906 -13.820312 L 14.800781 -14.523438 C 13.621094 -17.039062 11.660156 -18.21875 8.066406 -18.21875 C 3.519531 -18.21875 0.90625 -15.933594 0.90625 -12.589844 C 1.15625 -8.066406 4.171875 -7.5625 7.867188 -7.113281 C 10.050781 -6.886719 11.257812 -6.433594 11.257812 -5.300781 C 11.257812 -3.96875 10.152344 -3.316406 7.914062 -3.316406 C 6.28125 -3.316406 5.203125 -3.894531 4.675781 -5.050781 C 4.648438 -5.125 4.246094 -5.980469 4.246094 -5.980469 L 0.503906 -4.648438 L 0.855469 -3.695312 C 1.859375 -0.980469 4.222656 0.375 7.914062 0.375 C 12.515625 0.375 15.378906 -1.882812 15.378906 -5.378906 C 15.378906 -9.550781 12.3125 -10.503906 8.871094 -10.90625 C 7.640625 -11.058594 7.035156 -11.132812 6.257812 -11.410156 Z M 6.257812 -11.410156 "/></g></g></g><g fill="#446389" fill-opacity="1"><g transform="translate(355.214864, 152.845527)"><g><path d="M 9.375 0 L 9.375 -14.121094 L 14.324219 -14.121094 L 14.324219 -17.84375 L 0.328125 -17.84375 L 0.328125 -14.121094 L 5.300781 -14.121094 L 5.300781 0 Z M 9.375 0 "/></g></g></g><g fill="#446389" fill-opacity="1"><g transform="translate(369.865648, 152.845527)"><g/></g></g><g fill="#446389" fill-opacity="1"><g transform="translate(374.941905, 152.845527)"><g><path d="M 12.539062 0 L 17.039062 0 L 10.351562 -17.84375 L 6.535156 -17.84375 L -0.175781 0 L 4.144531 0 L 5.226562 -3.292969 L 11.460938 -3.292969 Z M 10.378906 -6.609375 L 6.332031 -6.609375 L 8.367188 -12.714844 Z M 10.378906 -6.609375 "/></g></g></g><g fill="#446389" fill-opacity="1"><g transform="translate(391.829267, 152.845527)"><g><path d="M 9.296875 -5.804688 C 13.117188 -5.804688 15.453125 -8.066406 15.453125 -11.8125 C 15.453125 -15.554688 13.09375 -17.84375 9.296875 -17.84375 L 1.53125 -17.84375 L 1.53125 0 L 5.628906 0 L 5.628906 -5.804688 Z M 8.871094 -14.121094 C 10.351562 -14.121094 11.207031 -13.242188 11.207031 -11.8125 C 11.207031 -10.378906 10.351562 -9.550781 8.871094 -9.550781 L 5.628906 -9.550781 L 5.628906 -14.121094 Z M 8.871094 -14.121094 "/></g></g></g><g fill="#446389" fill-opacity="1"><g transform="translate(407.887333, 152.845527)"><g><path d="M 5.628906 -17.84375 L 1.53125 -17.84375 L 1.53125 0 L 5.628906 0 Z M 5.628906 -17.84375 "/></g></g></g><g fill="#446389" fill-opacity="1"><g transform="translate(415.049375, 152.845527)"><g/></g></g><g fill="#446389" fill-opacity="1"><g transform="translate(420.125631, 152.845527)"><g><path d="M 6.183594 -13.445312 C 2.6875 -13.445312 0.777344 -11.785156 0.777344 -9.246094 C 0.777344 -6.082031 3.265625 -5.378906 5.929688 -5.125 C 8.015625 -4.925781 8.59375 -4.722656 8.59375 -3.921875 C 8.59375 -3.242188 7.867188 -2.890625 6.433594 -2.890625 C 5.203125 -2.890625 4.449219 -3.214844 4.144531 -3.84375 L 3.871094 -4.449219 L 0.476562 -3.34375 L 0.777344 -2.613281 C 1.582031 -0.628906 3.519531 0.375 6.558594 0.375 C 10.152344 0.375 12.214844 -1.355469 12.214844 -3.996094 C 12.214844 -6.808594 10.53125 -7.765625 6.886719 -8.117188 C 5.050781 -8.292969 4.449219 -8.519531 4.449219 -9.246094 C 4.449219 -9.851562 5.078125 -10.152344 6.308594 -10.152344 C 7.3125 -10.152344 8.042969 -9.824219 8.492188 -9.199219 L 8.847656 -8.695312 L 12.136719 -10.078125 L 11.761719 -10.753906 C 10.804688 -12.539062 8.945312 -13.445312 6.183594 -13.445312 Z M 6.183594 -13.445312 "/></g></g></g><g fill="#446389" fill-opacity="1"><g transform="translate(432.941928, 152.845527)"><g><path d="M 0.226562 -13.066406 L 0.226562 -9.699219 L 2.488281 -9.699219 L 2.488281 -5.328125 C 2.488281 -0.777344 4.273438 0.351562 8.59375 0.351562 L 9.523438 0.351562 L 9.523438 -3.140625 L 8.59375 -3.140625 C 6.859375 -3.140625 6.28125 -3.59375 6.28125 -5.476562 L 6.28125 -9.699219 L 9.523438 -9.699219 L 9.523438 -13.066406 L 6.28125 -13.066406 L 6.28125 -16.082031 L 2.488281 -16.082031 L 2.488281 -13.066406 Z M 0.226562 -13.066406 "/></g></g></g><g fill="#446389" fill-opacity="1"><g transform="translate(443.019066, 152.845527)"><g><path d="M 8.316406 -7.839844 C 7.789062 -7.867188 7.1875 -7.890625 6.535156 -7.890625 C 2.3125 -7.890625 0.679688 -6.859375 0.679688 -3.769531 C 0.679688 -0.929688 2.085938 0.375 6.433594 0.375 C 8.59375 0.375 10.175781 0.152344 11.183594 -0.300781 C 11.285156 -0.351562 12.113281 -0.730469 12.113281 -0.730469 L 12.113281 -8.140625 C 12.113281 -11.683594 10.253906 -13.445312 6.507812 -13.445312 C 3.84375 -13.445312 2.0625 -12.566406 1.128906 -10.832031 L 0.753906 -10.101562 L 3.894531 -8.796875 L 4.296875 -9.324219 C 4.773438 -9.953125 5.453125 -10.253906 6.382812 -10.253906 C 7.664062 -10.253906 8.316406 -9.625 8.316406 -8.394531 Z M 6.207031 -5 C 6.585938 -5 8.117188 -4.949219 8.316406 -4.949219 L 8.316406 -2.6875 L 8.09375 -2.664062 C 7.664062 -2.589844 7.011719 -2.5625 6.15625 -2.5625 C 4.851562 -2.5625 4.472656 -2.992188 4.472656 -3.792969 C 4.472656 -4.574219 4.875 -5 6.207031 -5 Z M 6.207031 -5 "/></g></g></g><g fill="#446389" fill-opacity="1"><g transform="translate(456.18718, 152.845527)"><g><path d="M 2.238281 -12.664062 C 1.433594 -12.339844 1.230469 -12.039062 1.230469 -11.207031 L 1.230469 0 L 5.027344 0 L 5.027344 -9.699219 C 5.027344 -9.800781 5.078125 -9.851562 5.175781 -9.875 C 5.703125 -10 6.28125 -10.050781 6.960938 -10.050781 L 8.820312 -10.050781 L 8.820312 -13.445312 L 7.0625 -13.445312 C 4.976562 -13.367188 3.367188 -13.117188 2.238281 -12.664062 Z M 2.238281 -12.664062 "/></g></g></g><g fill="#446389" fill-opacity="1"><g transform="translate(465.183723, 152.845527)"><g><path d="M 0.226562 -13.066406 L 0.226562 -9.699219 L 2.488281 -9.699219 L 2.488281 -5.328125 C 2.488281 -0.777344 4.273438 0.351562 8.59375 0.351562 L 9.523438 0.351562 L 9.523438 -3.140625 L 8.59375 -3.140625 C 6.859375 -3.140625 6.28125 -3.59375 6.28125 -5.476562 L 6.28125 -9.699219 L 9.523438 -9.699219 L 9.523438 -13.066406 L 6.28125 -13.066406 L 6.28125 -16.082031 L 2.488281 -16.082031 L 2.488281 -13.066406 Z M 0.226562 -13.066406 "/></g></g></g><g fill="#446389" fill-opacity="1"><g transform="translate(475.260833, 152.845527)"><g><path d="M 6.886719 -13.445312 C 2.992188 -13.445312 0.855469 -11.484375 0.855469 -7.867188 L 0.855469 -5.203125 C 0.855469 -1.808594 2.738281 0.375 6.859375 0.375 C 9.574219 0.375 11.410156 -0.402344 12.390625 -1.960938 L 12.792969 -2.613281 L 9.648438 -4.222656 L 9.296875 -3.746094 C 8.796875 -3.066406 7.992188 -2.738281 6.910156 -2.738281 C 5.402344 -2.738281 4.648438 -3.390625 4.648438 -4.722656 L 4.648438 -5.351562 L 12.941406 -5.351562 L 12.941406 -8.140625 C 12.941406 -11.234375 10.882812 -13.445312 6.886719 -13.445312 Z M 9.121094 -8.09375 L 4.648438 -8.09375 L 4.648438 -8.492188 C 4.648438 -9.777344 5.402344 -10.429688 6.886719 -10.429688 C 8.367188 -10.429688 9.121094 -9.777344 9.121094 -8.492188 Z M 9.121094 -8.09375 "/></g></g></g><g fill="#446389" fill-opacity="1"><g transform="translate(488.906398, 152.845527)"><g><path d="M 2.238281 -12.664062 C 1.433594 -12.339844 1.230469 -12.039062 1.230469 -11.207031 L 1.230469 0 L 5.027344 0 L 5.027344 -9.699219 C 5.027344 -9.800781 5.078125 -9.851562 5.175781 -9.875 C 5.703125 -10 6.28125 -10.050781 6.960938 -10.050781 L 8.820312 -10.050781 L 8.820312 -13.445312 L 7.0625 -13.445312 C 4.976562 -13.367188 3.367188 -13.117188 2.238281 -12.664062 Z M 2.238281 -12.664062 "/></g></g></g></svg>